<?xml version="1.0" encoding="UTF-8" standalone="no"?>
<!DOCTYPE svg PUBLIC "-//W3C//DTD SVG 1.1//EN"
 "http://www.w3.org/Graphics/SVG/1.1/DTD/svg11.dtd">
<!-- Generated by graphviz version 2.44.0 (0)
 -->
<!-- Title: hklpy2_overview Pages: 1 -->
<svg width="1128pt" height="199pt"
 viewBox="0.00 0.00 1128.00 199.00" xmlns="http://www.w3.org/2000/svg" xmlns:xlink="http://www.w3.org/1999/xlink">
<g id="graph0" class="graph" transform="scale(1 1) rotate(0) translate(4 195)">
<title>hklpy2_overview</title>
<g id="clust1" class="cluster">
<title>cluster_external_left</title>
<polygon fill="transparent" stroke="#888888" stroke-dasharray="5,2" points="8,-8 8,-183 118,-183 118,-8 8,-8"/>
<text text-anchor="middle" x="63" y="-169.4" font-family="sans-serif" font-size="12.00">External</text>
</g>
<g id="clust2" class="cluster">
<title>cluster_user</title>
<polygon fill="#f0f4ff" stroke="#3a6898" points="188,-41 188,-144 350,-144 350,-41 188,-41"/>
<text text-anchor="middle" x="269" y="-130.4" font-family="sans-serif" font-size="12.00">User&#45;facing</text>
</g>
<g id="clust3" class="cluster">
<title>cluster_core</title>
<polygon fill="#fffbe8" stroke="#a07820" points="420,-41 420,-144 639,-144 639,-41 420,-41"/>
<text text-anchor="middle" x="529.5" y="-130.4" font-family="sans-serif" font-size="12.00">Core</text>
</g>
<g id="clust4" class="cluster">
<title>cluster_solvers</title>
<polygon fill="#f4f0ff" stroke="#6a3a98" points="709,-47 709,-138 898,-138 898,-47 709,-47"/>
<text text-anchor="middle" x="803.5" y="-124.4" font-family="sans-serif" font-size="12.00">Solvers</text>
</g>
<g id="clust5" class="cluster">
<title>cluster_backend</title>
<polygon fill="transparent" stroke="#888888" stroke-dasharray="5,2" points="968,-54 968,-131 1112,-131 1112,-54 968,-54"/>
<text text-anchor="middle" x="1040" y="-117.4" font-family="sans-serif" font-size="12.00">Backend libraries</text>
</g>
<!-- bluesky -->
<g id="node1" class="node">
<title>bluesky</title>
<path fill="#e0e0e0" stroke="#666666" d="M97,-154C97,-154 29,-154 29,-154 23,-154 17,-148 17,-142 17,-142 17,-126 17,-126 17,-120 23,-114 29,-114 29,-114 97,-114 97,-114 103,-114 109,-120 109,-126 109,-126 109,-142 109,-142 109,-148 103,-154 97,-154"/>
<text text-anchor="middle" x="63" y="-137.4" font-family="sans-serif" font-size="12.00">Bluesky</text>
<text text-anchor="middle" x="63" y="-124.4" font-family="sans-serif" font-size="12.00">(plans, RE)</text>
</g>
<!-- user_box -->
<g id="node3" class="node">
<title>user_box</title>
<path fill="#dce8f8" stroke="#3a6898" d="M330,-115C330,-115 208,-115 208,-115 202,-115 196,-109 196,-103 196,-103 196,-61 196,-61 196,-55 202,-49 208,-49 208,-49 330,-49 330,-49 336,-49 342,-55 342,-61 342,-61 342,-103 342,-103 342,-109 336,-115 330,-115"/>
<text text-anchor="middle" x="269" y="-98.4" font-family="sans-serif" font-size="12.00">hklpy2.user</text>
<text text-anchor="middle" x="269" y="-85.4" font-family="sans-serif" font-size="12.00">DiffractometerBase</text>
<text text-anchor="middle" x="269" y="-72.4" font-family="sans-serif" font-size="12.00">Wavelength / beam</text>
<text text-anchor="middle" x="269" y="-59.4" font-family="sans-serif" font-size="12.00">creator()</text>
</g>
<!-- bluesky&#45;&gt;user_box -->
<g id="edge1" class="edge">
<title>bluesky&#45;&gt;user_box</title>
<path fill="none" stroke="black" d="M63,-103.79C63,-103.79 63,-85 63,-85 63,-85 185.79,-85 185.79,-85"/>
<polygon fill="black" stroke="black" points="59.5,-103.79 63,-113.79 66.5,-103.79 59.5,-103.79"/>
<polygon fill="black" stroke="black" points="185.79,-88.5 195.79,-85 185.79,-81.5 185.79,-88.5"/>
</g>
<!-- epics -->
<g id="node2" class="node">
<title>epics</title>
<path fill="#e0e0e0" stroke="#666666" d="M98,-56C98,-56 28,-56 28,-56 22,-56 16,-50 16,-44 16,-44 16,-28 16,-28 16,-22 22,-16 28,-16 28,-16 98,-16 98,-16 104,-16 110,-22 110,-28 110,-28 110,-44 110,-44 110,-50 104,-56 98,-56"/>
<text text-anchor="middle" x="63" y="-39.4" font-family="sans-serif" font-size="12.00">EPICS</text>
<text text-anchor="middle" x="63" y="-26.4" font-family="sans-serif" font-size="12.00">(hardware)</text>
</g>
<!-- epics&#45;&gt;user_box -->
<g id="edge2" class="edge">
<title>epics&#45;&gt;user_box</title>
<path fill="none" stroke="#888888" stroke-dasharray="5,2" d="M120,-52.5C120,-52.5 185.94,-52.5 185.94,-52.5"/>
<polygon fill="#888888" stroke="#888888" points="185.94,-56 195.94,-52.5 185.94,-49 185.94,-56"/>
<polygon fill="#888888" stroke="#888888" points="120,-49 110,-52.5 120,-56 120,-49"/>
</g>
<!-- core_box -->
<g id="node4" class="node">
<title>core_box</title>
<path fill="#fdf3dc" stroke="#a07820" d="M619,-115C619,-115 440,-115 440,-115 434,-115 428,-109 428,-103 428,-103 428,-61 428,-61 428,-55 434,-49 440,-49 440,-49 619,-49 619,-49 625,-49 631,-55 631,-61 631,-61 631,-103 631,-103 631,-109 625,-115 619,-115"/>
<text text-anchor="middle" x="529.5" y="-98.4" font-family="sans-serif" font-size="12.00">Core</text>
<text text-anchor="middle" x="529.5" y="-85.4" font-family="sans-serif" font-size="12.00">(blocks: Sample, Lattice,</text>
<text text-anchor="middle" x="529.5" y="-72.4" font-family="sans-serif" font-size="12.00">Reflection, Constraints,</text>
<text text-anchor="middle" x="529.5" y="-59.4" font-family="sans-serif" font-size="12.00">Presets, Zone, Configuration)</text>
</g>
<!-- user_box&#45;&gt;core_box -->
<g id="edge3" class="edge">
<title>user_box&#45;&gt;core_box</title>
<path fill="none" stroke="black" d="M342.26,-82C342.26,-82 417.64,-82 417.64,-82"/>
<polygon fill="black" stroke="black" points="417.64,-85.5 427.64,-82 417.64,-78.5 417.64,-85.5"/>
<text text-anchor="middle" x="365.95" y="-73.2" font-family="sans-serif" font-size="11.00">.core</text>
</g>
<!-- solver_box -->
<g id="node5" class="node">
<title>solver_box</title>
<path fill="#e8e0f8" stroke="#6a3a98" d="M878,-108.5C878,-108.5 729,-108.5 729,-108.5 723,-108.5 717,-102.5 717,-96.5 717,-96.5 717,-67.5 717,-67.5 717,-61.5 723,-55.5 729,-55.5 729,-55.5 878,-55.5 878,-55.5 884,-55.5 890,-61.5 890,-67.5 890,-67.5 890,-96.5 890,-96.5 890,-102.5 884,-108.5 878,-108.5"/>
<text text-anchor="middle" x="803.5" y="-91.9" font-family="sans-serif" font-size="12.00">SolverBase</text>
<text text-anchor="middle" x="803.5" y="-78.9" font-family="sans-serif" font-size="12.00">(HklSolver, ThTthSolver,</text>
<text text-anchor="middle" x="803.5" y="-65.9" font-family="sans-serif" font-size="12.00">NoOpSolver, ...)</text>
</g>
<!-- core_box&#45;&gt;solver_box -->
<g id="edge4" class="edge">
<title>core_box&#45;&gt;solver_box</title>
<path fill="none" stroke="black" d="M631.14,-82C631.14,-82 706.86,-82 706.86,-82"/>
<polygon fill="black" stroke="black" points="706.86,-85.5 716.86,-82 706.86,-78.5 706.86,-85.5"/>
<text text-anchor="middle" x="702" y="-73.2" font-family="sans-serif" font-size="11.00">calculations</text>
</g>
<!-- backend_box -->
<g id="node6" class="node">
<title>backend_box</title>
<path fill="#e0e0e0" stroke="#666666" stroke-dasharray="5,2" d="M1092,-102C1092,-102 988,-102 988,-102 982,-102 976,-96 976,-90 976,-90 976,-74 976,-74 976,-68 982,-62 988,-62 988,-62 1092,-62 1092,-62 1098,-62 1104,-68 1104,-74 1104,-74 1104,-90 1104,-90 1104,-96 1098,-102 1092,-102"/>
<text text-anchor="middle" x="1040" y="-85.4" font-family="sans-serif" font-size="12.00">libhkl</text>
<text text-anchor="middle" x="1040" y="-72.4" font-family="sans-serif" font-size="12.00">other libraries ...</text>
</g>
<!-- solver_box&#45;&gt;backend_box -->
<g id="edge5" class="edge">
<title>solver_box&#45;&gt;backend_box</title>
<path fill="none" stroke="black" stroke-dasharray="5,2" d="M890.22,-82C890.22,-82 965.89,-82 965.89,-82"/>
<polygon fill="black" stroke="black" points="965.89,-85.5 975.89,-82 965.89,-78.5 965.89,-85.5"/>
</g>
</g>
</svg>
