<?xml version="1.0" encoding="UTF-8" standalone="no"?>
<!DOCTYPE svg PUBLIC "-//W3C//DTD SVG 1.1//EN"
 "http://www.w3.org/Graphics/SVG/1.1/DTD/svg11.dtd">
<!-- Generated by graphviz version 2.44.0 (0)
 -->
<!-- Title: hklpy2_user Pages: 1 -->
<svg width="897pt" height="380pt"
 viewBox="0.00 0.00 897.00 380.00" xmlns="http://www.w3.org/2000/svg" xmlns:xlink="http://www.w3.org/1999/xlink">
<g id="graph0" class="graph" transform="scale(1 1) rotate(0) translate(4 376)">
<title>hklpy2_user</title>
<g id="clust1" class="cluster">
<title>cluster_bluesky</title>
<polygon fill="transparent" stroke="#888888" stroke-dasharray="5,2" points="33,-274 33,-364 172,-364 172,-274 33,-274"/>
<text text-anchor="middle" x="102.5" y="-350.4" font-family="sans-serif" font-size="12.00">Bluesky</text>
<text text-anchor="middle" x="102.5" y="-337.4" font-family="sans-serif" font-size="12.00">(data acquisition)</text>
</g>
<g id="clust2" class="cluster">
<title>cluster_epics</title>
<polygon fill="transparent" stroke="#888888" stroke-dasharray="5,2" points="36,-8 36,-98 169,-98 169,-8 36,-8"/>
<text text-anchor="middle" x="102.5" y="-84.4" font-family="sans-serif" font-size="12.00">EPICS</text>
<text text-anchor="middle" x="102.5" y="-71.4" font-family="sans-serif" font-size="12.00">(hardware controls)</text>
</g>
<g id="clust3" class="cluster">
<title>cluster_user</title>
<polygon fill="#f0f4ff" stroke="#3a6898" points="8,-106 8,-266 665,-266 665,-106 8,-106"/>
<text text-anchor="middle" x="336.5" y="-252.4" font-family="sans-serif" font-size="12.00">User&#45;facing</text>
</g>
<g id="clust4" class="cluster">
<title>cluster_core</title>
<polygon fill="#fffbe8" stroke="#a07820" points="721,-148 721,-225 881,-225 881,-148 721,-148"/>
<text text-anchor="middle" x="801" y="-211.4" font-family="sans-serif" font-size="12.00">Core</text>
</g>
<!-- bluesky -->
<g id="node1" class="node">
<title>bluesky</title>
<path fill="#e0e0e0" stroke="#666666" d="M152,-322C152,-322 53,-322 53,-322 47,-322 41,-316 41,-310 41,-310 41,-294 41,-294 41,-288 47,-282 53,-282 53,-282 152,-282 152,-282 158,-282 164,-288 164,-294 164,-294 164,-310 164,-310 164,-316 158,-322 152,-322"/>
<text text-anchor="middle" x="102.5" y="-305.4" font-family="sans-serif" font-size="12.00">bluesky plans</text>
<text text-anchor="middle" x="102.5" y="-292.4" font-family="sans-serif" font-size="12.00">(RE, bps.mv, ...)</text>
</g>
<!-- diffract -->
<g id="node5" class="node">
<title>diffract</title>
<path fill="#dce8f8" stroke="#3a6898" d="M428,-195C428,-195 273,-195 273,-195 267,-195 261,-189 261,-183 261,-183 261,-167 261,-167 261,-161 267,-155 273,-155 273,-155 428,-155 428,-155 434,-155 440,-161 440,-167 440,-167 440,-183 440,-183 440,-189 434,-195 428,-195"/>
<text text-anchor="middle" x="350.5" y="-178.4" font-family="sans-serif" font-size="12.00">DiffractometerBase</text>
<text text-anchor="middle" x="350.5" y="-165.4" font-family="sans-serif" font-size="12.00">(ophyd PseudoPositioner)</text>
</g>
<!-- bluesky&#45;&gt;diffract -->
<g id="edge1" class="edge">
<title>bluesky&#45;&gt;diffract</title>
<path fill="none" stroke="black" d="M174.25,-302C174.25,-302 351,-302 351,-302 351,-302 351,-205.12 351,-205.12"/>
<polygon fill="black" stroke="black" points="174.25,-298.5 164.25,-302 174.25,-305.5 174.25,-298.5"/>
<polygon fill="black" stroke="black" points="354.5,-205.12 351,-195.12 347.5,-205.12 354.5,-205.12"/>
</g>
<!-- epics -->
<g id="node2" class="node">
<title>epics</title>
<path fill="#e0e0e0" stroke="#666666" d="M139,-56C139,-56 66,-56 66,-56 60,-56 54,-50 54,-44 54,-44 54,-28 54,-28 54,-22 60,-16 66,-16 66,-16 139,-16 139,-16 145,-16 151,-22 151,-28 151,-28 151,-44 151,-44 151,-50 145,-56 139,-56"/>
<text text-anchor="middle" x="102.5" y="-39.4" font-family="sans-serif" font-size="12.00">EPICS</text>
<text text-anchor="middle" x="102.5" y="-26.4" font-family="sans-serif" font-size="12.00">motor axes</text>
</g>
<!-- epics&#45;&gt;diffract -->
<g id="edge2" class="edge">
<title>epics&#45;&gt;diffract</title>
<path fill="none" stroke="#888888" stroke-dasharray="5,2" d="M151,-42.67C223.32,-42.67 351,-42.67 351,-42.67 351,-42.67 351,-144.9 351,-144.9"/>
<polygon fill="#888888" stroke="#888888" points="347.5,-144.9 351,-154.9 354.5,-144.9 347.5,-144.9"/>
</g>
<!-- wavelength -->
<g id="node6" class="node">
<title>wavelength</title>
<path fill="#dce8f8" stroke="#3a6898" d="M645,-154C645,-154 524,-154 524,-154 518,-154 512,-148 512,-142 512,-142 512,-126 512,-126 512,-120 518,-114 524,-114 524,-114 645,-114 645,-114 651,-114 657,-120 657,-126 657,-126 657,-142 657,-142 657,-148 651,-154 645,-154"/>
<text text-anchor="middle" x="584.5" y="-137.4" font-family="sans-serif" font-size="12.00">Wavelength / beam</text>
<text text-anchor="middle" x="584.5" y="-124.4" font-family="sans-serif" font-size="12.00">(ophyd.Device)</text>
</g>
<!-- epics&#45;&gt;wavelength -->
<g id="edge3" class="edge">
<title>epics&#45;&gt;wavelength</title>
<path fill="none" stroke="#888888" stroke-dasharray="5,2" d="M151.42,-29.33C274.09,-29.33 585,-29.33 585,-29.33 585,-29.33 585,-103.82 585,-103.82"/>
<polygon fill="#888888" stroke="#888888" points="581.5,-103.82 585,-113.82 588.5,-103.82 581.5,-103.82"/>
<text text-anchor="middle" x="377.95" y="-20.53" font-family="sans-serif" font-size="11.00">EPICS PVs</text>
<text text-anchor="middle" x="377.95" y="-8.53" font-family="sans-serif" font-size="11.00">(optional)</text>
</g>
<!-- creator -->
<g id="node3" class="node">
<title>creator</title>
<path fill="#dce8f8" stroke="#3a6898" d="M152.5,-237C152.5,-237 52.5,-237 52.5,-237 46.5,-237 40.5,-231 40.5,-225 40.5,-225 40.5,-209 40.5,-209 40.5,-203 46.5,-197 52.5,-197 52.5,-197 152.5,-197 152.5,-197 158.5,-197 164.5,-203 164.5,-209 164.5,-209 164.5,-225 164.5,-225 164.5,-231 158.5,-237 152.5,-237"/>
<text text-anchor="middle" x="102.5" y="-220.4" font-family="sans-serif" font-size="12.00">creator()</text>
<text text-anchor="middle" x="102.5" y="-207.4" font-family="sans-serif" font-size="12.00">factory function</text>
</g>
<!-- creator&#45;&gt;diffract -->
<g id="edge4" class="edge">
<title>creator&#45;&gt;diffract</title>
<path fill="none" stroke="black" d="M103,-196.86C103,-188.92 103,-181.67 103,-181.67 103,-181.67 250.8,-181.67 250.8,-181.67"/>
<polygon fill="black" stroke="black" points="250.8,-185.17 260.8,-181.67 250.8,-178.17 250.8,-185.17"/>
<text text-anchor="middle" x="148.3" y="-172.87" font-family="sans-serif" font-size="11.00">creates</text>
</g>
<!-- usermod -->
<g id="node4" class="node">
<title>usermod</title>
<path fill="#dce8f8" stroke="#3a6898" d="M177,-154C177,-154 28,-154 28,-154 22,-154 16,-148 16,-142 16,-142 16,-126 16,-126 16,-120 22,-114 28,-114 28,-114 177,-114 177,-114 183,-114 189,-120 189,-126 189,-126 189,-142 189,-142 189,-148 183,-154 177,-154"/>
<text text-anchor="middle" x="102.5" y="-137.4" font-family="sans-serif" font-size="12.00">hklpy2.user</text>
<text text-anchor="middle" x="102.5" y="-124.4" font-family="sans-serif" font-size="12.00">(pa, wh, cahkl, setor, ...)</text>
</g>
<!-- usermod&#45;&gt;diffract -->
<g id="edge5" class="edge">
<title>usermod&#45;&gt;diffract</title>
<path fill="none" stroke="black" d="M177,-154.37C177,-161.76 177,-168.33 177,-168.33 177,-168.33 250.95,-168.33 250.95,-168.33"/>
<polygon fill="black" stroke="black" points="250.95,-171.83 260.95,-168.33 250.95,-164.83 250.95,-171.83"/>
</g>
<!-- diffract&#45;&gt;wavelength -->
<g id="edge6" class="edge">
<title>diffract&#45;&gt;wavelength</title>
<path fill="none" stroke="black" d="M440.08,-165.75C497.37,-165.75 561,-165.75 561,-165.75 561,-165.75 561,-164.29 561,-164.29"/>
<polygon fill="black" stroke="black" points="564.5,-164.29 561,-154.29 557.5,-164.29 564.5,-164.29"/>
<text text-anchor="middle" x="483.77" y="-156.95" font-family="sans-serif" font-size="11.00">.beam</text>
</g>
<!-- core_box -->
<g id="node7" class="node">
<title>core_box</title>
<path fill="#fdf3dc" stroke="#a07820" stroke-dasharray="5,2" d="M861,-196C861,-196 741,-196 741,-196 735,-196 729,-190 729,-184 729,-184 729,-168 729,-168 729,-162 735,-156 741,-156 741,-156 861,-156 861,-156 867,-156 873,-162 873,-168 873,-168 873,-184 873,-184 873,-190 867,-196 861,-196"/>
<text text-anchor="middle" x="801" y="-179.4" font-family="sans-serif" font-size="12.00">Core</text>
<text text-anchor="middle" x="801" y="-166.4" font-family="sans-serif" font-size="12.00">(see Core diagram)</text>
</g>
<!-- diffract&#45;&gt;core_box -->
<g id="edge7" class="edge">
<title>diffract&#45;&gt;core_box</title>
<path fill="none" stroke="black" d="M440.04,-185.25C440.04,-185.25 718.7,-185.25 718.7,-185.25"/>
<polygon fill="black" stroke="black" points="718.7,-188.75 728.7,-185.25 718.7,-181.75 718.7,-188.75"/>
<text text-anchor="middle" x="565.37" y="-176.45" font-family="sans-serif" font-size="11.00">.core</text>
</g>
<!-- wavelength&#45;&gt;core_box -->
<g id="edge8" class="edge">
<title>wavelength&#45;&gt;core_box</title>
<path fill="none" stroke="black" d="M609,-154.26C609,-164.8 609,-175.5 609,-175.5 609,-175.5 718.96,-175.5 718.96,-175.5"/>
<polygon fill="black" stroke="black" points="718.96,-179 728.96,-175.5 718.96,-172 718.96,-179"/>
<text text-anchor="middle" x="637.86" y="-166.7" font-family="sans-serif" font-size="11.00">beam</text>
</g>
</g>
</svg>
