<?xml version="1.0" encoding="UTF-8" standalone="no"?>
<!DOCTYPE svg PUBLIC "-//W3C//DTD SVG 1.1//EN"
 "http://www.w3.org/Graphics/SVG/1.1/DTD/svg11.dtd">
<!-- Generated by graphviz version 2.44.0 (0)
 -->
<!-- Title: hklpy2_user Pages: 1 -->
<svg width="897pt" height="376pt"
 viewBox="0.00 0.00 897.00 376.00" xmlns="http://www.w3.org/2000/svg" xmlns:xlink="http://www.w3.org/1999/xlink">
<g id="graph0" class="graph" transform="scale(1 1) rotate(0) translate(4 372)">
<title>hklpy2_user</title>
<g id="clust1" class="cluster">
<title>cluster_bluesky</title>
<polygon fill="transparent" stroke="#888888" stroke-dasharray="5,2" points="33,-270 33,-360 172,-360 172,-270 33,-270"/>
<text text-anchor="middle" x="102.5" y="-346.4" font-family="sans-serif" font-size="12.00">Bluesky</text>
<text text-anchor="middle" x="102.5" y="-333.4" font-family="sans-serif" font-size="12.00">(data acquisition)</text>
</g>
<g id="clust2" class="cluster">
<title>cluster_epics</title>
<polygon fill="transparent" stroke="#888888" stroke-dasharray="5,2" points="36,-8 36,-94 169,-94 169,-8 36,-8"/>
<text text-anchor="middle" x="102.5" y="-80.4" font-family="sans-serif" font-size="12.00">EPICS</text>
<text text-anchor="middle" x="102.5" y="-67.4" font-family="sans-serif" font-size="12.00">(hardware controls)</text>
</g>
<g id="clust3" class="cluster">
<title>cluster_user</title>
<polygon fill="#f0f4ff" stroke="#3a6898" points="8,-102 8,-262 665,-262 665,-102 8,-102"/>
<text text-anchor="middle" x="336.5" y="-248.4" font-family="sans-serif" font-size="12.00">User&#45;facing</text>
</g>
<g id="clust4" class="cluster">
<title>cluster_core</title>
<polygon fill="#fffbe8" stroke="#a07820" points="721,-144 721,-221 881,-221 881,-144 721,-144"/>
<text text-anchor="middle" x="801" y="-207.4" font-family="sans-serif" font-size="12.00">Core</text>
</g>
<!-- bluesky -->
<g id="node1" class="node">
<title>bluesky</title>
<path fill="#e0e0e0" stroke="#666666" d="M152,-318C152,-318 53,-318 53,-318 47,-318 41,-312 41,-306 41,-306 41,-290 41,-290 41,-284 47,-278 53,-278 53,-278 152,-278 152,-278 158,-278 164,-284 164,-290 164,-290 164,-306 164,-306 164,-312 158,-318 152,-318"/>
<text text-anchor="middle" x="102.5" y="-301.4" font-family="sans-serif" font-size="12.00">bluesky plans</text>
<text text-anchor="middle" x="102.5" y="-288.4" font-family="sans-serif" font-size="12.00">(RE, bps.mv, ...)</text>
</g>
<!-- diffract -->
<g id="node5" class="node">
<title>diffract</title>
<path fill="#dce8f8" stroke="#3a6898" d="M428,-191C428,-191 273,-191 273,-191 267,-191 261,-185 261,-179 261,-179 261,-163 261,-163 261,-157 267,-151 273,-151 273,-151 428,-151 428,-151 434,-151 440,-157 440,-163 440,-163 440,-179 440,-179 440,-185 434,-191 428,-191"/>
<text text-anchor="middle" x="350.5" y="-174.4" font-family="sans-serif" font-size="12.00">DiffractometerBase</text>
<text text-anchor="middle" x="350.5" y="-161.4" font-family="sans-serif" font-size="12.00">(ophyd PseudoPositioner)</text>
</g>
<!-- bluesky&#45;&gt;diffract -->
<g id="edge1" class="edge">
<title>bluesky&#45;&gt;diffract</title>
<path fill="none" stroke="black" d="M174.25,-298C174.25,-298 351,-298 351,-298 351,-298 351,-201.12 351,-201.12"/>
<polygon fill="black" stroke="black" points="174.25,-294.5 164.25,-298 174.25,-301.5 174.25,-294.5"/>
<polygon fill="black" stroke="black" points="354.5,-201.12 351,-191.12 347.5,-201.12 354.5,-201.12"/>
</g>
<!-- epics -->
<g id="node2" class="node">
<title>epics</title>
<path fill="#e0e0e0" stroke="#666666" d="M122,-52C122,-52 83,-52 83,-52 77,-52 71,-46 71,-40 71,-40 71,-28 71,-28 71,-22 77,-16 83,-16 83,-16 122,-16 122,-16 128,-16 134,-22 134,-28 134,-28 134,-40 134,-40 134,-46 128,-52 122,-52"/>
<text text-anchor="middle" x="102.5" y="-30.9" font-family="sans-serif" font-size="12.00">EPICS</text>
</g>
<!-- epics&#45;&gt;diffract -->
<g id="edge2" class="edge">
<title>epics&#45;&gt;diffract</title>
<path fill="none" stroke="#888888" stroke-dasharray="5,2" d="M134.23,-40C201.22,-40 351,-40 351,-40 351,-40 351,-140.82 351,-140.82"/>
<polygon fill="#888888" stroke="#888888" points="347.5,-140.82 351,-150.82 354.5,-140.82 347.5,-140.82"/>
<text text-anchor="middle" x="264.02" y="-31.2" font-family="sans-serif" font-size="11.00">motor PVs</text>
</g>
<!-- wavelength -->
<g id="node6" class="node">
<title>wavelength</title>
<path fill="#dce8f8" stroke="#3a6898" d="M645,-150C645,-150 524,-150 524,-150 518,-150 512,-144 512,-138 512,-138 512,-122 512,-122 512,-116 518,-110 524,-110 524,-110 645,-110 645,-110 651,-110 657,-116 657,-122 657,-122 657,-138 657,-138 657,-144 651,-150 645,-150"/>
<text text-anchor="middle" x="584.5" y="-133.4" font-family="sans-serif" font-size="12.00">Wavelength / beam</text>
<text text-anchor="middle" x="584.5" y="-120.4" font-family="sans-serif" font-size="12.00">(ophyd.Device)</text>
</g>
<!-- epics&#45;&gt;wavelength -->
<g id="edge3" class="edge">
<title>epics&#45;&gt;wavelength</title>
<path fill="none" stroke="#888888" stroke-dasharray="5,2" d="M134.16,-28C241.5,-28 585,-28 585,-28 585,-28 585,-99.85 585,-99.85"/>
<polygon fill="#888888" stroke="#888888" points="581.5,-99.85 585,-109.85 588.5,-99.85 581.5,-99.85"/>
<text text-anchor="middle" x="385" y="-19.2" font-family="sans-serif" font-size="11.00">PVs</text>
</g>
<!-- creator -->
<g id="node3" class="node">
<title>creator</title>
<path fill="#dce8f8" stroke="#3a6898" d="M152.5,-233C152.5,-233 52.5,-233 52.5,-233 46.5,-233 40.5,-227 40.5,-221 40.5,-221 40.5,-205 40.5,-205 40.5,-199 46.5,-193 52.5,-193 52.5,-193 152.5,-193 152.5,-193 158.5,-193 164.5,-199 164.5,-205 164.5,-205 164.5,-221 164.5,-221 164.5,-227 158.5,-233 152.5,-233"/>
<text text-anchor="middle" x="102.5" y="-216.4" font-family="sans-serif" font-size="12.00">creator()</text>
<text text-anchor="middle" x="102.5" y="-203.4" font-family="sans-serif" font-size="12.00">factory function</text>
</g>
<!-- creator&#45;&gt;diffract -->
<g id="edge4" class="edge">
<title>creator&#45;&gt;diffract</title>
<path fill="none" stroke="black" d="M103,-192.86C103,-184.92 103,-177.67 103,-177.67 103,-177.67 250.8,-177.67 250.8,-177.67"/>
<polygon fill="black" stroke="black" points="250.8,-181.17 260.8,-177.67 250.8,-174.17 250.8,-181.17"/>
<text text-anchor="middle" x="148.3" y="-168.87" font-family="sans-serif" font-size="11.00">creates</text>
</g>
<!-- usermod -->
<g id="node4" class="node">
<title>usermod</title>
<path fill="#dce8f8" stroke="#3a6898" d="M177,-150C177,-150 28,-150 28,-150 22,-150 16,-144 16,-138 16,-138 16,-122 16,-122 16,-116 22,-110 28,-110 28,-110 177,-110 177,-110 183,-110 189,-116 189,-122 189,-122 189,-138 189,-138 189,-144 183,-150 177,-150"/>
<text text-anchor="middle" x="102.5" y="-133.4" font-family="sans-serif" font-size="12.00">hklpy2.user</text>
<text text-anchor="middle" x="102.5" y="-120.4" font-family="sans-serif" font-size="12.00">(pa, wh, cahkl, setor, ...)</text>
</g>
<!-- usermod&#45;&gt;diffract -->
<g id="edge5" class="edge">
<title>usermod&#45;&gt;diffract</title>
<path fill="none" stroke="black" d="M177,-150.37C177,-157.76 177,-164.33 177,-164.33 177,-164.33 250.95,-164.33 250.95,-164.33"/>
<polygon fill="black" stroke="black" points="250.95,-167.83 260.95,-164.33 250.95,-160.83 250.95,-167.83"/>
</g>
<!-- diffract&#45;&gt;wavelength -->
<g id="edge6" class="edge">
<title>diffract&#45;&gt;wavelength</title>
<path fill="none" stroke="black" d="M440.08,-161.75C497.37,-161.75 561,-161.75 561,-161.75 561,-161.75 561,-160.29 561,-160.29"/>
<polygon fill="black" stroke="black" points="564.5,-160.29 561,-150.29 557.5,-160.29 564.5,-160.29"/>
<text text-anchor="middle" x="483.77" y="-152.95" font-family="sans-serif" font-size="11.00">.beam</text>
</g>
<!-- core_box -->
<g id="node7" class="node">
<title>core_box</title>
<path fill="#fdf3dc" stroke="#a07820" stroke-dasharray="5,2" d="M861,-192C861,-192 741,-192 741,-192 735,-192 729,-186 729,-180 729,-180 729,-164 729,-164 729,-158 735,-152 741,-152 741,-152 861,-152 861,-152 867,-152 873,-158 873,-164 873,-164 873,-180 873,-180 873,-186 867,-192 861,-192"/>
<text text-anchor="middle" x="801" y="-175.4" font-family="sans-serif" font-size="12.00">Core</text>
<text text-anchor="middle" x="801" y="-162.4" font-family="sans-serif" font-size="12.00">(see Core diagram)</text>
</g>
<!-- diffract&#45;&gt;core_box -->
<g id="edge7" class="edge">
<title>diffract&#45;&gt;core_box</title>
<path fill="none" stroke="black" d="M440.04,-181.25C440.04,-181.25 718.7,-181.25 718.7,-181.25"/>
<polygon fill="black" stroke="black" points="718.7,-184.75 728.7,-181.25 718.7,-177.75 718.7,-184.75"/>
<text text-anchor="middle" x="565.37" y="-172.45" font-family="sans-serif" font-size="11.00">.core</text>
</g>
<!-- wavelength&#45;&gt;core_box -->
<g id="edge8" class="edge">
<title>wavelength&#45;&gt;core_box</title>
<path fill="none" stroke="black" d="M609,-150.26C609,-160.8 609,-171.5 609,-171.5 609,-171.5 718.96,-171.5 718.96,-171.5"/>
<polygon fill="black" stroke="black" points="718.96,-175 728.96,-171.5 718.96,-168 718.96,-175"/>
<text text-anchor="middle" x="637.86" y="-162.7" font-family="sans-serif" font-size="11.00">beam</text>
</g>
</g>
</svg>
