<?xml version="1.0" encoding="UTF-8" standalone="no"?>
<!DOCTYPE svg PUBLIC "-//W3C//DTD SVG 1.1//EN"
 "http://www.w3.org/Graphics/SVG/1.1/DTD/svg11.dtd">
<!-- Generated by graphviz version 2.44.0 (0)
 -->
<!-- Title: hklpy2_solvers Pages: 1 -->
<svg width="833pt" height="340pt"
 viewBox="0.00 0.00 833.00 340.00" xmlns="http://www.w3.org/2000/svg" xmlns:xlink="http://www.w3.org/1999/xlink">
<g id="graph0" class="graph" transform="scale(1 1) rotate(0) translate(4 336)">
<title>hklpy2_solvers</title>
<g id="clust1" class="cluster">
<title>cluster_core</title>
<polygon fill="#fffbe8" stroke="#a07820" points="8,-131 8,-208 168,-208 168,-131 8,-131"/>
<text text-anchor="middle" x="88" y="-194.4" font-family="sans-serif" font-size="12.00">Core</text>
</g>
<g id="clust2" class="cluster">
<title>cluster_solver</title>
<polygon fill="#f4f0ff" stroke="#6a3a98" points="224,-93 224,-324 592.5,-324 592.5,-93 224,-93"/>
<text text-anchor="middle" x="408.25" y="-310.4" font-family="sans-serif" font-size="12.00">Solver adapter &#160;(built&#45;in)</text>
</g>
<g id="clust3" class="cluster">
<title>cluster_ext_solver</title>
<polygon fill="transparent" stroke="#6a3a98" stroke-dasharray="5,2" points="439,-8 439,-85 629,-85 629,-8 439,-8"/>
<text text-anchor="middle" x="534" y="-71.4" font-family="sans-serif" font-size="12.00">Additional Solvers</text>
</g>
<g id="clust4" class="cluster">
<title>cluster_backend</title>
<polygon fill="transparent" stroke="#888888" stroke-dasharray="5,2" points="685,-9 685,-165 817,-165 817,-9 685,-9"/>
<text text-anchor="middle" x="751" y="-151.4" font-family="sans-serif" font-size="12.00">Backend libraries</text>
</g>
<!-- core_box -->
<g id="node1" class="node">
<title>core_box</title>
<path fill="#fdf3dc" stroke="#a07820" stroke-dasharray="5,2" d="M148,-179C148,-179 28,-179 28,-179 22,-179 16,-173 16,-167 16,-167 16,-151 16,-151 16,-145 22,-139 28,-139 28,-139 148,-139 148,-139 154,-139 160,-145 160,-151 160,-151 160,-167 160,-167 160,-173 154,-179 148,-179"/>
<text text-anchor="middle" x="88" y="-162.4" font-family="sans-serif" font-size="12.00">Core</text>
<text text-anchor="middle" x="88" y="-149.4" font-family="sans-serif" font-size="12.00">(see Core diagram)</text>
</g>
<!-- solverbase -->
<g id="node2" class="node">
<title>solverbase</title>
<path fill="#e8e0f8" stroke="#6a3a98" d="M363,-179C363,-179 244,-179 244,-179 238,-179 232,-173 232,-167 232,-167 232,-151 232,-151 232,-145 238,-139 244,-139 244,-139 363,-139 363,-139 369,-139 375,-145 375,-151 375,-151 375,-167 375,-167 375,-173 369,-179 363,-179"/>
<text text-anchor="middle" x="303.5" y="-162.4" font-family="sans-serif" font-size="12.00">SolverBase</text>
<text text-anchor="middle" x="303.5" y="-149.4" font-family="sans-serif" font-size="12.00">(adapter interface)</text>
</g>
<!-- core_box&#45;&gt;solverbase -->
<g id="edge1" class="edge">
<title>core_box&#45;&gt;solverbase</title>
<path fill="none" stroke="black" d="M160.06,-159C160.06,-159 221.88,-159 221.88,-159"/>
<polygon fill="black" stroke="black" points="221.88,-162.5 231.88,-159 221.88,-155.5 221.88,-162.5"/>
<text text-anchor="middle" x="223.97" y="-150.2" font-family="sans-serif" font-size="11.00">calculations</text>
</g>
<!-- hklsolver -->
<g id="node3" class="node">
<title>hklsolver</title>
<path fill="#e8e0f8" stroke="#6a3a98" d="M564.5,-137C564.5,-137 503.5,-137 503.5,-137 497.5,-137 491.5,-131 491.5,-125 491.5,-125 491.5,-113 491.5,-113 491.5,-107 497.5,-101 503.5,-101 503.5,-101 564.5,-101 564.5,-101 570.5,-101 576.5,-107 576.5,-113 576.5,-113 576.5,-125 576.5,-125 576.5,-131 570.5,-137 564.5,-137"/>
<text text-anchor="middle" x="534" y="-115.9" font-family="sans-serif" font-size="12.00">HklSolver</text>
</g>
<!-- solverbase&#45;&gt;hklsolver -->
<g id="edge2" class="edge">
<title>solverbase&#45;&gt;hklsolver</title>
<path fill="none" stroke="black" stroke-dasharray="5,2" d="M375.17,-159C442.83,-159 534,-159 534,-159 534,-159 534,-147.71 534,-137.13"/>
<text text-anchor="middle" x="441.52" y="-150.2" font-family="sans-serif" font-size="11.00">subclass</text>
</g>
<!-- thttthsolver -->
<g id="node4" class="node">
<title>thttthsolver</title>
<path fill="#e8e0f8" stroke="#6a3a98" d="M572.5,-216C572.5,-216 495.5,-216 495.5,-216 489.5,-216 483.5,-210 483.5,-204 483.5,-204 483.5,-192 483.5,-192 483.5,-186 489.5,-180 495.5,-180 495.5,-180 572.5,-180 572.5,-180 578.5,-180 584.5,-186 584.5,-192 584.5,-192 584.5,-204 584.5,-204 584.5,-210 578.5,-216 572.5,-216"/>
<text text-anchor="middle" x="534" y="-194.9" font-family="sans-serif" font-size="12.00">ThTthSolver</text>
</g>
<!-- solverbase&#45;&gt;thttthsolver -->
<g id="edge3" class="edge">
<title>solverbase&#45;&gt;thttthsolver</title>
<path fill="none" stroke="black" stroke-dasharray="5,2" d="M375.1,-169C426.96,-169 488,-169 488,-169 488,-169 488,-173.97 488,-179.8"/>
</g>
<!-- noopsolver -->
<g id="node5" class="node">
<title>noopsolver</title>
<path fill="#e8e0f8" stroke="#6a3a98" d="M572,-295C572,-295 496,-295 496,-295 490,-295 484,-289 484,-283 484,-283 484,-271 484,-271 484,-265 490,-259 496,-259 496,-259 572,-259 572,-259 578,-259 584,-265 584,-271 584,-271 584,-283 584,-283 584,-289 578,-295 572,-295"/>
<text text-anchor="middle" x="534" y="-273.9" font-family="sans-serif" font-size="12.00">NoOpSolver</text>
</g>
<!-- solverbase&#45;&gt;noopsolver -->
<g id="edge4" class="edge">
<title>solverbase&#45;&gt;noopsolver</title>
<path fill="none" stroke="black" stroke-dasharray="5,2" d="M304,-179.02C304,-212.68 304,-277 304,-277 304,-277 416.13,-277 483.81,-277"/>
</g>
<!-- extsolver -->
<g id="node6" class="node">
<title>extsolver</title>
<path fill="#e8e0f8" stroke="#6a3a98" stroke-dasharray="5,2" d="M609,-56C609,-56 459,-56 459,-56 453,-56 447,-50 447,-44 447,-44 447,-28 447,-28 447,-22 453,-16 459,-16 459,-16 609,-16 609,-16 615,-16 621,-22 621,-28 621,-28 621,-44 621,-44 621,-50 615,-56 609,-56"/>
<text text-anchor="middle" x="534" y="-39.4" font-family="sans-serif" font-size="12.00">ExternalSolver</text>
<text text-anchor="middle" x="534" y="-26.4" font-family="sans-serif" font-size="12.00">(subclass of SolverBase)</text>
</g>
<!-- solverbase&#45;&gt;extsolver -->
<g id="edge5" class="edge">
<title>solverbase&#45;&gt;extsolver</title>
<path fill="none" stroke="black" stroke-dasharray="5,2" d="M375.25,-149C418.78,-149 466,-149 466,-149 466,-149 466,-88.7 466,-56.2"/>
<text text-anchor="middle" x="432.5" y="-139.18" font-family="sans-serif" font-size="11.00">entry points</text>
</g>
<!-- libhkl -->
<g id="node7" class="node">
<title>libhkl</title>
<path fill="#e0e0e0" stroke="#666666" d="M768.5,-136C768.5,-136 733.5,-136 733.5,-136 727.5,-136 721.5,-130 721.5,-124 721.5,-124 721.5,-112 721.5,-112 721.5,-106 727.5,-100 733.5,-100 733.5,-100 768.5,-100 768.5,-100 774.5,-100 780.5,-106 780.5,-112 780.5,-112 780.5,-124 780.5,-124 780.5,-130 774.5,-136 768.5,-136"/>
<text text-anchor="middle" x="751" y="-114.9" font-family="sans-serif" font-size="12.00">libhkl</text>
</g>
<!-- hklsolver&#45;&gt;libhkl -->
<g id="edge6" class="edge">
<title>hklsolver&#45;&gt;libhkl</title>
<path fill="none" stroke="black" d="M576.61,-118.5C576.61,-118.5 711.36,-118.5 711.36,-118.5"/>
<polygon fill="black" stroke="black" points="711.36,-122 721.36,-118.5 711.36,-115 711.36,-122"/>
</g>
<!-- otherbk -->
<g id="node8" class="node">
<title>otherbk</title>
<path fill="#e0e0e0" stroke="#666666" stroke-dasharray="5,2" d="M797,-57C797,-57 705,-57 705,-57 699,-57 693,-51 693,-45 693,-45 693,-29 693,-29 693,-23 699,-17 705,-17 705,-17 797,-17 797,-17 803,-17 809,-23 809,-29 809,-29 809,-45 809,-45 809,-51 803,-57 797,-57"/>
<text text-anchor="middle" x="751" y="-40.4" font-family="sans-serif" font-size="12.00">other backend</text>
<text text-anchor="middle" x="751" y="-27.4" font-family="sans-serif" font-size="12.00">libraries ...</text>
</g>
<!-- extsolver&#45;&gt;otherbk -->
<g id="edge7" class="edge">
<title>extsolver&#45;&gt;otherbk</title>
<path fill="none" stroke="black" stroke-dasharray="5,2" d="M621.01,-36.5C621.01,-36.5 682.91,-36.5 682.91,-36.5"/>
<polygon fill="black" stroke="black" points="682.91,-40 692.91,-36.5 682.91,-33 682.91,-40"/>
</g>
</g>
</svg>
