<?xml version="1.0" encoding="UTF-8" standalone="no"?>
<!DOCTYPE svg PUBLIC "-//W3C//DTD SVG 1.1//EN"
 "http://www.w3.org/Graphics/SVG/1.1/DTD/svg11.dtd">
<!-- Generated by graphviz version 2.44.0 (0)
 -->
<!-- Title: hklpy2_core Pages: 1 -->
<svg width="844pt" height="268pt"
 viewBox="0.00 0.00 844.00 268.00" xmlns="http://www.w3.org/2000/svg" xmlns:xlink="http://www.w3.org/1999/xlink">
<g id="graph0" class="graph" transform="scale(1 1) rotate(0) translate(4 264)">
<title>hklpy2_core</title>
<!-- spacer -->
<!-- solver_box -->
<g id="node4" class="node">
<title>solver_box</title>
<path fill="#e8e0f8" stroke="#6a3a98" stroke-dasharray="5,2" d="M824,-260C824,-260 688,-260 688,-260 682,-260 676,-254 676,-248 676,-248 676,-232 676,-232 676,-226 682,-220 688,-220 688,-220 824,-220 824,-220 830,-220 836,-226 836,-232 836,-232 836,-248 836,-248 836,-254 830,-260 824,-260"/>
<text text-anchor="middle" x="756" y="-243.4" font-family="sans-serif" font-size="12.00">SolverBase</text>
<text text-anchor="middle" x="756" y="-230.4" font-family="sans-serif" font-size="12.00">(see Solvers diagram)</text>
</g>
<!-- spacer&#45;&gt;solver_box -->
<!-- diffract -->
<g id="node2" class="node">
<title>diffract</title>
<path fill="#dce8f8" stroke="#3a6898" stroke-dasharray="5,2" d="M281,-260C281,-260 159,-260 159,-260 153,-260 147,-254 147,-248 147,-248 147,-232 147,-232 147,-226 153,-220 159,-220 159,-220 281,-220 281,-220 287,-220 293,-226 293,-232 293,-232 293,-248 293,-248 293,-254 287,-260 281,-260"/>
<text text-anchor="middle" x="220" y="-243.4" font-family="sans-serif" font-size="12.00">DiffractometerBase</text>
<text text-anchor="middle" x="220" y="-230.4" font-family="sans-serif" font-size="12.00">(see User diagram)</text>
</g>
<!-- diffract&#45;&gt;spacer -->
<!-- wavelength -->
<g id="node3" class="node">
<title>wavelength</title>
<path fill="#dce8f8" stroke="#3a6898" stroke-dasharray="5,2" d="M469.5,-260C469.5,-260 348.5,-260 348.5,-260 342.5,-260 336.5,-254 336.5,-248 336.5,-248 336.5,-232 336.5,-232 336.5,-226 342.5,-220 348.5,-220 348.5,-220 469.5,-220 469.5,-220 475.5,-220 481.5,-226 481.5,-232 481.5,-232 481.5,-248 481.5,-248 481.5,-254 475.5,-260 469.5,-260"/>
<text text-anchor="middle" x="409" y="-243.4" font-family="sans-serif" font-size="12.00">Wavelength / beam</text>
<text text-anchor="middle" x="409" y="-230.4" font-family="sans-serif" font-size="12.00">(see User diagram)</text>
</g>
<!-- diffract&#45;&gt;wavelength -->
<!-- core -->
<g id="node5" class="node">
<title>core</title>
<path fill="#fdf3dc" stroke="#a07820" d="M425,-148C425,-148 393,-148 393,-148 387,-148 381,-142 381,-136 381,-136 381,-124 381,-124 381,-118 387,-112 393,-112 393,-112 425,-112 425,-112 431,-112 437,-118 437,-124 437,-124 437,-136 437,-136 437,-142 431,-148 425,-148"/>
<text text-anchor="middle" x="409" y="-126.9" font-family="sans-serif" font-size="12.00">Core</text>
</g>
<!-- diffract&#45;&gt;core -->
<g id="edge4" class="edge">
<title>diffract&#45;&gt;core</title>
<path fill="none" stroke="black" d="M272,-219.76C272,-190.54 272,-140 272,-140 272,-140 370.95,-140 370.95,-140"/>
<polygon fill="black" stroke="black" points="370.95,-143.5 380.95,-140 370.95,-136.5 370.95,-143.5"/>
<text text-anchor="middle" x="267.59" y="-143.2" font-family="sans-serif" font-size="11.00">.core</text>
</g>
<!-- wavelength&#45;&gt;core -->
<g id="edge5" class="edge">
<title>wavelength&#45;&gt;core</title>
<path fill="none" stroke="black" d="M409,-219.82C409,-219.82 409,-158.22 409,-158.22"/>
<polygon fill="black" stroke="black" points="412.5,-158.22 409,-148.22 405.5,-158.22 412.5,-158.22"/>
<text text-anchor="middle" x="393.5" y="-192.22" font-family="sans-serif" font-size="11.00">beam</text>
</g>
<!-- core&#45;&gt;solver_box -->
<g id="edge13" class="edge">
<title>core&#45;&gt;solver_box</title>
<path fill="none" stroke="black" d="M437.09,-140C509.43,-140 696.5,-140 696.5,-140 696.5,-140 696.5,-209.76 696.5,-209.76"/>
<polygon fill="black" stroke="black" points="693,-209.76 696.5,-219.76 700,-209.76 693,-209.76"/>
<text text-anchor="middle" x="568.68" y="-143.2" font-family="sans-serif" font-size="11.00">calculations</text>
</g>
<!-- sample -->
<g id="node6" class="node">
<title>sample</title>
<path fill="#fdf3dc" stroke="#a07820" d="M62,-38C62,-38 12,-38 12,-38 6,-38 0,-32 0,-26 0,-26 0,-14 0,-14 0,-8 6,-2 12,-2 12,-2 62,-2 62,-2 68,-2 74,-8 74,-14 74,-14 74,-26 74,-26 74,-32 68,-38 62,-38"/>
<text text-anchor="middle" x="37" y="-16.9" font-family="sans-serif" font-size="12.00">Sample</text>
</g>
<!-- core&#45;&gt;sample -->
<g id="edge6" class="edge">
<title>core&#45;&gt;sample</title>
<path fill="none" stroke="black" d="M380.73,-133C293.92,-133 37,-133 37,-133 37,-133 37,-48.16 37,-48.16"/>
<polygon fill="black" stroke="black" points="40.5,-48.16 37,-38.16 33.5,-48.16 40.5,-48.16"/>
</g>
<!-- lattice -->
<g id="node7" class="node">
<title>lattice</title>
<path fill="#fdf3dc" stroke="#a07820" d="M174.5,-38C174.5,-38 129.5,-38 129.5,-38 123.5,-38 117.5,-32 117.5,-26 117.5,-26 117.5,-14 117.5,-14 117.5,-8 123.5,-2 129.5,-2 129.5,-2 174.5,-2 174.5,-2 180.5,-2 186.5,-8 186.5,-14 186.5,-14 186.5,-26 186.5,-26 186.5,-32 180.5,-38 174.5,-38"/>
<text text-anchor="middle" x="152" y="-16.9" font-family="sans-serif" font-size="12.00">Lattice</text>
</g>
<!-- core&#45;&gt;lattice -->
<g id="edge7" class="edge">
<title>core&#45;&gt;lattice</title>
<path fill="none" stroke="black" d="M380.74,-126C316.83,-126 166.75,-126 166.75,-126 166.75,-126 166.75,-48.46 166.75,-48.46"/>
<polygon fill="black" stroke="black" points="170.25,-48.46 166.75,-38.46 163.25,-48.46 170.25,-48.46"/>
</g>
<!-- reflection -->
<g id="node8" class="node">
<title>reflection</title>
<path fill="#fdf3dc" stroke="#a07820" d="M306,-38C306,-38 242,-38 242,-38 236,-38 230,-32 230,-26 230,-26 230,-14 230,-14 230,-8 236,-2 242,-2 242,-2 306,-2 306,-2 312,-2 318,-8 318,-14 318,-14 318,-26 318,-26 318,-32 312,-38 306,-38"/>
<text text-anchor="middle" x="274" y="-16.9" font-family="sans-serif" font-size="12.00">Reflection</text>
</g>
<!-- core&#45;&gt;reflection -->
<g id="edge8" class="edge">
<title>core&#45;&gt;reflection</title>
<path fill="none" stroke="black" d="M380.99,-119C350.34,-119 305.5,-119 305.5,-119 305.5,-119 305.5,-48.16 305.5,-48.16"/>
<polygon fill="black" stroke="black" points="309,-48.16 305.5,-38.16 302,-48.16 309,-48.16"/>
</g>
<!-- constraints -->
<g id="node9" class="node">
<title>constraints</title>
<path fill="#fdf3dc" stroke="#a07820" d="M445,-40C445,-40 373,-40 373,-40 367,-40 361,-34 361,-28 361,-28 361,-12 361,-12 361,-6 367,0 373,0 373,0 445,0 445,0 451,0 457,-6 457,-12 457,-12 457,-28 457,-28 457,-34 451,-40 445,-40"/>
<text text-anchor="middle" x="409" y="-23.4" font-family="sans-serif" font-size="12.00">Constraints</text>
<text text-anchor="middle" x="409" y="-10.4" font-family="sans-serif" font-size="12.00">cut_point</text>
</g>
<!-- core&#45;&gt;constraints -->
<g id="edge9" class="edge">
<title>core&#45;&gt;constraints</title>
<path fill="none" stroke="black" d="M409,-111.84C409,-111.84 409,-50.06 409,-50.06"/>
<polygon fill="black" stroke="black" points="412.5,-50.06 409,-40.06 405.5,-50.06 412.5,-50.06"/>
</g>
<!-- presets -->
<g id="node10" class="node">
<title>presets</title>
<path fill="#fdf3dc" stroke="#a07820" d="M559.5,-38C559.5,-38 512.5,-38 512.5,-38 506.5,-38 500.5,-32 500.5,-26 500.5,-26 500.5,-14 500.5,-14 500.5,-8 506.5,-2 512.5,-2 512.5,-2 559.5,-2 559.5,-2 565.5,-2 571.5,-8 571.5,-14 571.5,-14 571.5,-26 571.5,-26 571.5,-32 565.5,-38 559.5,-38"/>
<text text-anchor="middle" x="536" y="-16.9" font-family="sans-serif" font-size="12.00">Presets</text>
</g>
<!-- core&#45;&gt;presets -->
<g id="edge10" class="edge">
<title>core&#45;&gt;presets</title>
<path fill="none" stroke="black" d="M437.08,-119C467.8,-119 512.75,-119 512.75,-119 512.75,-119 512.75,-48.16 512.75,-48.16"/>
<polygon fill="black" stroke="black" points="516.25,-48.16 512.75,-38.16 509.25,-48.16 516.25,-48.16"/>
</g>
<!-- zone -->
<g id="node11" class="node">
<title>zone</title>
<path fill="#fdf3dc" stroke="#a07820" d="M661.5,-38C661.5,-38 626.5,-38 626.5,-38 620.5,-38 614.5,-32 614.5,-26 614.5,-26 614.5,-14 614.5,-14 614.5,-8 620.5,-2 626.5,-2 626.5,-2 661.5,-2 661.5,-2 667.5,-2 673.5,-8 673.5,-14 673.5,-14 673.5,-26 673.5,-26 673.5,-32 667.5,-38 661.5,-38"/>
<text text-anchor="middle" x="644" y="-16.9" font-family="sans-serif" font-size="12.00">Zone</text>
</g>
<!-- core&#45;&gt;zone -->
<g id="edge11" class="edge">
<title>core&#45;&gt;zone</title>
<path fill="none" stroke="black" d="M437.07,-126C495.29,-126 623.75,-126 623.75,-126 623.75,-126 623.75,-48.46 623.75,-48.46"/>
<polygon fill="black" stroke="black" points="627.25,-48.46 623.75,-38.46 620.25,-48.46 627.25,-48.46"/>
</g>
<!-- configure -->
<g id="node12" class="node">
<title>configure</title>
<path fill="#fdf3dc" stroke="#a07820" d="M815,-38C815,-38 729,-38 729,-38 723,-38 717,-32 717,-26 717,-26 717,-14 717,-14 717,-8 723,-2 729,-2 729,-2 815,-2 815,-2 821,-2 827,-8 827,-14 827,-14 827,-26 827,-26 827,-32 821,-38 815,-38"/>
<text text-anchor="middle" x="772" y="-16.9" font-family="sans-serif" font-size="12.00">Configuration</text>
</g>
<!-- core&#45;&gt;configure -->
<g id="edge12" class="edge">
<title>core&#45;&gt;configure</title>
<path fill="none" stroke="black" d="M437.18,-133C522.47,-133 772,-133 772,-133 772,-133 772,-48.16 772,-48.16"/>
<polygon fill="black" stroke="black" points="775.5,-48.16 772,-38.16 768.5,-48.16 775.5,-48.16"/>
</g>
</g>
</svg>
